<!DOCTYPE svg PUBLIC "-//W3C//DTD SVG 1.1//EN" "http://www.w3.org/Graphics/SVG/1.1/DTD/svg11.dtd">
<!-- Uploaded to: SVG Repo, www.svgrepo.com, Transformed by: SVG Repo Mixer Tools -->
<svg fill="#000000" width="800px" height="800px" viewBox="0 0 24 24" id="chat-alert-left" data-name="Flat Line" xmlns="http://www.w3.org/2000/svg" class="icon flat-line">
<g id="SVGRepo_bgCarrier" stroke-width="0"/>
<g id="SVGRepo_tracerCarrier" stroke-linecap="round" stroke-linejoin="round"/>
<g id="SVGRepo_iconCarrier">
<path id="secondary" d="M3,11c0-4.42,4-8,9-8s9,3.58,9,8-4,8-9,8A9.87,9.87,0,0,1,9,18.52L4,21l1.19-4.77A7.5,7.5,0,0,1,3,11Z" style="fill: #ff0000; stroke-width: 2;"/>
<path id="primary" d="M3,11c0-4.42,4-8,9-8s9,3.58,9,8-4,8-9,8A9.87,9.87,0,0,1,9,18.52L4,21l1.19-4.77A7.5,7.5,0,0,1,3,11Zm9-4v3" style="fill: none; stroke: #ededed; stroke-linecap: round; stroke-linejoin: round; stroke-width: 2;"/>
<line id="primary-upstroke" x1="12.05" y1="14.5" x2="11.95" y2="14.5" style="fill: none; stroke: #ededed; stroke-linecap: round; stroke-linejoin: round; stroke-width: 2.5;"/>
</g>
</svg>