<!DOCTYPE svg PUBLIC "-//W3C//DTD SVG 1.1//EN" "http://www.w3.org/Graphics/SVG/1.1/DTD/svg11.dtd">
<!-- Uploaded to: SVG Repo, www.svgrepo.com, Transformed by: SVG Repo Mixer Tools -->
<svg height="800px" width="800px" version="1.1" id="Layer_1" xmlns="http://www.w3.org/2000/svg" xmlns:xlink="http://www.w3.org/1999/xlink" viewBox="-4.51 -4.51 460.31 460.31" xml:space="preserve" fill="#000000">
<g id="SVGRepo_bgCarrier" stroke-width="0"/>
<g id="SVGRepo_tracerCarrier" stroke-linecap="round" stroke-linejoin="round"/>
<g id="SVGRepo_iconCarrier"> <ellipse style="fill:#273B7A;" cx="225.64" cy="225.639" rx="225.639" ry="225.639"/> <path style="opacity:0.1;enable-background:new ;" d="M451.291,226.795l-99.896-99.896l-0.004,0.019 c-2.478-2.592-5.967-4.233-9.864-4.241l-0.992-0.002l-23.518-23.518c-0.08-0.082-0.159-0.163-0.242-0.242l-0.124-0.124l-0.006,0.018 c-1.528-1.401-3.559-2.278-5.81-2.283c-4.743-0.009-8.595,3.772-8.605,8.447l-0.036,17.623l-131.483-0.27l-23.55-23.55 c-0.062-0.063-0.123-0.125-0.187-0.187l-0.086-0.086l-0.003,0.013c-1.535-1.437-3.596-2.335-5.88-2.339 c-4.743-0.01-8.595,3.772-8.605,8.447l-0.036,17.623l-22.16-0.046c-7.523-0.015-13.633,5.983-13.648,13.398l-0.087,42.57 l-0.335,163.056c-0.007,3.345,1.272,6.368,3.32,8.723l-0.034,0.034l0.372,0.372c0.211,0.225,0.425,0.441,0.651,0.651l98.688,98.688 c8.555,1.002,17.239,1.581,26.06,1.599C349.582,451.546,450.658,351.098,451.291,226.795z"/> <path style="fill:#00ff00;" d="M355.12,136.131c0.015-7.415-6.071-13.439-13.594-13.454l-231.324-0.475 c-7.523-0.016-13.633,5.983-13.648,13.398l-0.087,42.57l258.566,0.531L355.12,136.131z"/> <path style="fill:#EBF0F3;" d="M96.467,178.17l-0.335,163.056c-0.016,7.415,6.07,13.438,13.593,13.454l231.324,0.475 c7.523,0.015,13.633-5.984,13.649-13.398l0.335-163.056L96.467,178.17z"/> <g> <ellipse style="fill:#000000;" cx="140.909" cy="140.837" rx="12.257" ry="12.257"/> <ellipse style="fill:#000000;" cx="310.74" cy="141.191" rx="12.257" ry="12.257"/> </g> <path style="fill:#E1E6E9;" d="M141.003,96.177l-0.107,52.175c4.742,0.01,8.595-3.772,8.604-8.447l0.072-35.246 C149.582,99.984,145.745,96.186,141.003,96.177z"/> <g> <path style="fill:#EBF0F3;" d="M132.398,104.624l-0.072,35.246c-0.009,4.675,3.827,8.473,8.57,8.482l0.107-52.175 C136.26,96.167,132.408,99.949,132.398,104.624z"/> <path style="fill:#EBF0F3;" d="M302.229,104.972l-0.072,35.246c-0.009,4.675,3.827,8.472,8.57,8.482l0.107-52.175 C306.09,96.516,302.238,100.298,302.229,104.972z"/> </g> <path style="fill:#E1E6E9;" d="M310.834,96.525l-0.107,52.175c4.742,0.01,8.595-3.772,8.604-8.447l0.072-35.246 C319.413,100.333,315.575,96.535,310.834,96.525z"/> <g> <path style="fill:#485865;" d="M196.421,256.797c2.737-3.711,4.098-7.491,4.106-11.308c0.008-3.816-1.439-7.059-4.34-9.75 c-2.902-2.691-6.582-4.041-11.031-4.05c-7.822-0.016-14.32,3.976-19.518,11.965l-12.943-7.527 c4.195-6.26,8.821-10.977,13.876-14.151c5.043-3.174,11.548-4.747,19.503-4.731c7.955,0.016,14.917,2.549,20.909,7.609 c5.992,5.05,8.974,11.946,8.956,20.666c-0.01,4.915-1.296,9.594-3.845,14.038c-2.55,4.455-7.244,10.17-14.082,17.146l-22.403,22.72 l43.214,0.088l-0.032,15.411l-65.16-0.134l0.028-13.635l28.961-28.976C189.08,265.647,193.683,260.52,196.421,256.797z"/> <path style="fill:#485865;" d="M292.467,219.638l-0.03,14.589l-40.219-0.083L252.17,257.6c3.998-2.178,8.55-3.256,13.642-3.245 c8.909,0.018,16.581,2.719,23.016,8.091c6.446,5.372,9.66,12.657,9.641,21.832c-0.019,9.175-3.396,16.78-10.132,22.813 c-6.747,6.033-15.019,9.034-24.838,9.014c-12.814-0.026-23.024-4.319-30.65-12.878l8.622-11.71c0.72,0.734,1.694,1.601,2.924,2.602 c1.219,1.001,3.745,2.349,7.558,4.032c3.814,1.694,7.983,2.546,12.532,2.556c4.549,0.009,8.679-1.347,12.413-4.068 c3.733-2.722,5.605-6.69,5.616-11.915c0.011-5.226-1.956-9.28-5.9-12.15c-3.955-2.871-8.945-4.312-14.991-4.325 c-6.047-0.012-11.797,1.474-17.251,4.469l-6.808-7.381l0.094-45.81L292.467,219.638z"/> </g> </g>
</svg>