<!DOCTYPE svg PUBLIC "-//W3C//DTD SVG 1.1//EN" "http://www.w3.org/Graphics/SVG/1.1/DTD/svg11.dtd">
<!-- Uploaded to: SVG Repo, www.svgrepo.com, Transformed by: SVG Repo Mixer Tools -->
<svg height="800px" width="800px" version="1.1" id="Layer_1" xmlns="http://www.w3.org/2000/svg" xmlns:xlink="http://www.w3.org/1999/xlink" viewBox="-5.12 -5.12 522.24 522.24" xml:space="preserve" fill="#000000" stroke="#000000" stroke-width="1.536">
<g id="SVGRepo_bgCarrier" stroke-width="0" transform="translate(0,0), scale(1)"/>
<g id="SVGRepo_tracerCarrier" stroke-linecap="round" stroke-linejoin="round" stroke="#CCCCCC" stroke-width="1.024"/>
<g id="SVGRepo_iconCarrier"> <circle style="fill:#273B7A;" cx="256" cy="256" r="256"/> <path style="opacity:0.1;enable-background:new ;" d="M392.533,118.859c-5.547-5.493-12.32-9.707-17.013-9.493 c-18.827,0.693-45.067,38.4-60.693,63.733c-25.707-15.04-59.253-11.573-81.333,10.507l-22.507,22.507 c-25.227,25.227-57.973,41.227-92.96,45.813c-8.107,1.067-11.627,10.827-5.813,16.587l40.16,40.213 c-14.027,14.027-14.027,36.8,0,50.88l148.411,148.411C420.805,486.827,512,382.096,512,256c0-6.181-0.299-12.293-0.725-18.363 L392.853,119.179L392.533,118.859z"/> <path style="fill:#00ff00;" d="M316.24,210.299l-14.539-14.539c0,0,45.413-85.307,73.803-86.421 c9.595-0.379,27.536,17.563,27.163,27.163C401.547,164.891,316.24,210.299,316.24,210.299z"/> <path style="fill:#ffd86b;" d="M260.069,393.984c4.603-34.997,20.608-67.739,45.84-92.971l21.173-21.173 c25.557-25.557,27.904-67.184,3.579-93.915c-25.968-28.539-70.187-29.323-97.163-2.347l-22.512,22.512 c-25.232,25.232-57.973,41.237-92.971,45.84c-8.107,1.067-11.6,10.789-5.824,16.571l131.301,131.301 C249.275,405.584,259.003,402.085,260.069,393.984z"/> <path style="fill:#F6C358;" d="M310.491,193.179c20.88,20.875,20.88,54.843,0.005,75.717l-22.512,22.512 c-24.069,24.069-40.245,53.925-47.253,86.427l6.965,6.965c6.096-35.195,22.832-67.611,48.613-93.392l22.512-22.512 c20.875-20.875,20.875-54.843-0.005-75.717c-11.493-11.493-26.955-16.624-42.016-15.456 C289.088,178.672,301.115,183.803,310.491,193.179z"/> <path style="fill:#00ff00;" d="M152.4,308.709c-14.053,14.053-14.053,36.837,0,50.891s36.837,14.053,50.891,0L152.4,308.709z"/> </g>
</svg>